<svg width="32" height="32" viewBox="0 0 32 32" fill="none" xmlns="http://www.w3.org/2000/svg">
<path d="M12.6666 4C13.0624 4 13.4376 4.17576 13.6909 4.47975L16.6253 8H28C29.4058 8 30.5575 9.08782 30.6593 10.4676L30.6666 10.6667V26.6667C30.6666 28.1394 29.4728 29.3333 28 29.3333H3.99998C2.52722 29.3333 1.33331 28.1394 1.33331 26.6667V6.66667C1.33331 5.19391 2.52722 4 3.99998 4H12.6666ZM12.0413 6.66667H3.99998V26.6667H28V10.6667H16C15.6043 10.6667 15.229 10.4909 14.9757 10.1869L12.0413 6.66667ZM15.2852 12.8743L15.3005 12.8645C15.321 12.8519 15.3417 12.8398 15.3627 12.8284C15.388 12.8147 15.4143 12.8015 15.4411 12.7891C15.4594 12.7806 15.4776 12.7727 15.4959 12.7652C15.5239 12.7538 15.5526 12.7432 15.5817 12.7336C15.6049 12.726 15.6286 12.7189 15.6524 12.7125C15.6769 12.7058 15.7018 12.6999 15.727 12.6946C15.7531 12.6893 15.7789 12.6848 15.8048 12.6809C15.8287 12.6773 15.8536 12.6744 15.8786 12.6721C15.9111 12.6692 15.9431 12.6675 15.9752 12.6669C15.9829 12.6667 15.9914 12.6667 16 12.6667L16.0259 12.6669C16.0567 12.6675 16.0874 12.6692 16.118 12.6719L16 12.6667C16.0675 12.6667 16.1338 12.6717 16.1986 12.6814C16.2209 12.6848 16.244 12.6889 16.2671 12.6935C16.297 12.6995 16.3259 12.7064 16.3544 12.7143C16.3748 12.72 16.3953 12.7262 16.4157 12.7328C16.4424 12.7415 16.4688 12.7511 16.4947 12.7615C16.518 12.7708 16.5411 12.7808 16.564 12.7914C16.5918 12.8045 16.619 12.8184 16.6457 12.8332C16.6616 12.8419 16.6779 12.8513 16.6941 12.8612C16.7283 12.8823 16.7615 12.9047 16.7935 12.9284C16.8015 12.9342 16.8093 12.9402 16.8171 12.9462C16.8262 12.9534 16.8301 12.9565 16.8339 12.9596L16.9428 13.0572L21.6095 17.7239C22.1302 18.2446 22.1302 19.0888 21.6095 19.6095C21.1288 20.0901 20.3725 20.1271 19.8494 19.7204L19.7238 19.6095L17.3333 17.22V23.3333C17.3333 24.0697 16.7364 24.6667 16 24.6667C15.3162 24.6667 14.7526 24.1519 14.6756 23.4888L14.6666 23.3333V17.2213L12.2772 19.6188C11.7971 20.1 11.0408 20.1378 10.5173 19.7317L10.3916 19.6209C9.91037 19.1408 9.87256 18.3845 10.2787 17.861L10.3895 17.7353L15.0459 13.0686C15.0875 13.026 15.132 12.9861 15.1789 12.9494L15.1817 12.9471L15.2852 12.8743Z" fill="#EE6424"/>
<path fill-rule="evenodd" clip-rule="evenodd" d="M12.0413 6.66699H4V26.667H28V10.667H16C15.6043 10.667 15.229 10.4912 14.9757 10.1872L12.0413 6.66699ZM15.2852 12.8746L15.3005 12.8648C15.321 12.8522 15.3417 12.8402 15.3627 12.8287C15.3881 12.815 15.4144 12.8018 15.4411 12.7894C15.4594 12.7809 15.4776 12.773 15.4959 12.7656C15.524 12.7541 15.5526 12.7435 15.5817 12.7339C15.605 12.7263 15.6286 12.7193 15.6524 12.7129C15.6769 12.7062 15.7018 12.7002 15.727 12.695C15.7531 12.6897 15.7789 12.6851 15.8048 12.6813C15.8287 12.6777 15.8536 12.6747 15.8786 12.6724C15.9111 12.6696 15.9432 12.6678 15.9752 12.6672L16 12.667C16.0675 12.667 16.1338 12.672 16.1986 12.6817C16.2209 12.6851 16.244 12.6892 16.2671 12.6939C16.297 12.6998 16.3259 12.7068 16.3545 12.7146C16.3748 12.7203 16.3954 12.7265 16.4158 12.7332C16.4424 12.7418 16.4688 12.7514 16.4947 12.7618C16.518 12.7711 16.5411 12.7811 16.564 12.7917C16.5919 12.8048 16.6191 12.8187 16.6457 12.8335C16.6616 12.8422 16.6779 12.8517 16.6941 12.8615C16.7284 12.8826 16.7615 12.905 16.7935 12.9287C16.8015 12.9345 16.8093 12.9405 16.8171 12.9465L16.8339 12.9599L16.9428 13.0575L21.6095 17.7242C22.1302 18.2449 22.1302 19.0891 21.6095 19.6098C21.1288 20.0904 20.3725 20.1274 19.8495 19.7207L19.7239 19.6098L17.3333 17.2203V23.3337C17.3333 24.07 16.7364 24.667 16 24.667C15.3162 24.667 14.7527 24.1523 14.6756 23.4892L14.6667 23.3337V17.2217L12.2772 19.6192C11.7971 20.1003 11.0408 20.1381 10.5173 19.732L10.3916 19.6213C9.91039 19.1411 9.87258 18.3849 10.2787 17.8614L10.3895 17.7356L15.0459 13.0689C15.0875 13.0263 15.132 12.9865 15.179 12.9497L15.1817 12.9474L15.2852 12.8746Z" fill="#FFECE6"/>
</svg>
